<?xml version="1.0" encoding="UTF-8"?>
<svg version="1.1" xmlns="http://www.w3.org/2000/svg" width="622" height="718">
<path d="M0 0 C8.82038545 6.81385227 13.95490812 16.12931402 16.47265625 26.91015625 C18.19032578 44.32409874 14.87883895 58.08918337 3.875 71.91796875 C-2.41726206 78.76922448 -10.51971363 83.81957618 -18.07324219 89.16162109 C-22.07151022 92.01036718 -26.01800448 94.92827799 -29.96484375 97.84765625 C-31.55728944 99.02344052 -33.14973736 100.19922176 -34.7421875 101.375 C-35.53222168 101.95878418 -36.32225586 102.54256836 -37.13623047 103.14404297 C-41.09725528 106.0697172 -45.06245915 108.98971616 -49.02734375 111.91015625 C-53.96655744 115.54846466 -58.90468912 119.1882181 -63.83984375 122.83203125 C-64.70802734 123.47269531 -65.57621094 124.11335937 -66.47070312 124.7734375 C-68.13908449 126.00464941 -69.80707166 127.23639571 -71.47460938 128.46875 C-72.22419922 129.02175781 -72.97378906 129.57476562 -73.74609375 130.14453125 C-74.40544922 130.63147461 -75.06480469 131.11841797 -75.74414062 131.62011719 C-77.31202361 132.75438522 -78.91719829 133.83672594 -80.52734375 134.91015625 C-79.77710938 135.12929688 -79.026875 135.3484375 -78.25390625 135.57421875 C-65.21700211 139.61336034 -54.27046306 145.63235922 -47.58300781 157.96044922 C-40.49945882 171.84881363 -40.3989537 184.02031433 -44.52734375 198.91015625 C-45.68580139 201.7585503 -46.98076552 204.24364206 -48.52734375 206.91015625 C-47.9446875 206.86375 -47.36203125 206.81734375 -46.76171875 206.76953125 C-34.17655913 206.21546762 -22.71531425 211.37440235 -13.4609375 219.7890625 C-3.27440959 230.67962689 -0.83558117 243.4044029 -1.15234375 257.8125 C-1.88064261 271.81404566 -9.21377951 283.06973336 -19.046875 292.6328125 C-20.52734375 293.91015625 -20.52734375 293.91015625 -22.52734375 294.91015625 C-21.26921875 295.28140625 -20.01109375 295.65265625 -18.71484375 296.03515625 C-4.59356862 300.78665449 5.50305032 308.72690694 12.47265625 321.91015625 C17.57297566 332.38208865 16.96038584 346.90566414 13.91015625 357.91015625 C8.63939043 372.46486748 -1.1350003 381.48447642 -13.50390625 390.08984375 C-17.96805585 393.19852732 -22.3418197 396.42506561 -26.71484375 399.66015625 C-27.51631836 400.2519165 -28.31779297 400.84367676 -29.14355469 401.45336914 C-31.60548059 403.27140296 -34.06650102 405.09065662 -36.52734375 406.91015625 C-46.56623244 414.33064601 -56.62263658 421.72236958 -66.75585938 429.01367188 C-71.42188527 432.3756556 -76.06134813 435.77112761 -80.68408203 439.19238281 C-129.86206914 475.5842929 -181.78321307 497.77342965 -244.26245117 490.08349609 C-248.05570764 489.51076823 -251.78771927 488.76167092 -255.52734375 487.91015625 C-256.29530273 487.74386719 -257.06326172 487.57757812 -257.85449219 487.40625 C-285.62783558 481.26220845 -311.01429666 468.50056249 -332.52734375 449.91015625 C-333.02266602 449.48331543 -333.51798828 449.05647461 -334.02832031 448.61669922 C-341.32437882 442.28186747 -347.65896301 435.62414826 -353.52734375 427.91015625 C-354.18089844 427.07226562 -354.83445312 426.234375 -355.5078125 425.37109375 C-379.23836502 394.01455529 -389.23333138 356.7791643 -388.45458984 317.7277832 C-388.43476673 316.48174253 -388.41494362 315.23570187 -388.39451981 313.95190239 C-388.33912022 310.54542802 -388.27828423 307.13913525 -388.21494341 303.73280501 C-388.14791623 300.05837845 -388.08783939 296.38383724 -388.02694702 292.70930481 C-387.92145376 286.39339652 -387.81168474 280.07757402 -387.69958496 273.76177979 C-387.53939591 264.71588589 -387.39223231 255.66980915 -387.24783373 246.62365127 C-386.99165812 230.58591468 -386.71785242 214.54856212 -386.42728043 198.51141167 C-386.27053184 189.84406525 -386.11932045 181.17668649 -385.98046875 172.5090332 C-385.85600453 164.74001621 -385.72185289 156.97123746 -385.57603776 149.20259076 C-385.50029336 145.15109334 -385.42898313 141.09964493 -385.36955643 137.04787254 C-385.31421564 133.28503707 -385.24573664 129.52265954 -385.16757774 125.76023102 C-385.12917051 123.75506807 -385.10420801 121.74966114 -385.07987976 119.74427795 C-384.71087833 103.53363567 -381.36240822 87.74522072 -369.52734375 75.91015625 C-356.93055895 64.2622818 -343.17112262 59.40217909 -326.25 59.65625 C-321.0311353 60.01220614 -316.41865634 61.08976483 -311.52734375 62.91015625 C-310.83382812 63.16539062 -310.1403125 63.420625 -309.42578125 63.68359375 C-299.02609839 68.19979069 -290.81286601 77.43057503 -286.3125 87.67578125 C-282.5859031 97.38349988 -282.38725574 106.18717772 -282.4296875 116.5 C-282.43110245 117.79966202 -282.4325174 119.09932404 -282.43397522 120.43836975 C-282.43777041 123.87258878 -282.44757467 127.30676467 -282.4586792 130.7409668 C-282.4689582 134.25373756 -282.47348667 137.76651537 -282.47851562 141.27929688 C-282.48919999 148.15626758 -282.50623987 155.03320984 -282.52734375 161.91015625 C-270.33338138 152.92994147 -270.33338138 152.92994147 -258.1484375 143.9375 C-249.89880397 137.84290364 -241.61773794 131.79582606 -233.29443359 125.80224609 C-224.65484771 119.57353222 -216.09249435 113.24061611 -207.52734375 106.91015625 C-197.48639489 99.4889413 -187.42667971 92.09843819 -177.29443359 84.80224609 C-168.65484771 78.57353222 -160.09249435 72.24061611 -151.52734375 65.91015625 C-141.48639489 58.4889413 -131.42667971 51.09843819 -121.29443359 43.80224609 C-112.65484771 37.57353222 -104.09249435 31.24061611 -95.52734375 24.91015625 C-89.9877135 20.81584331 -84.44308416 16.72857837 -78.89013672 12.65234375 C-76.49185533 10.88398913 -74.10503406 9.10090642 -71.71875 7.31640625 C-49.52466437 -9.16722835 -24.69735766 -16.73734598 0 0 Z M-59.90234375 17.34765625 C-61.30877214 18.42334579 -62.71636806 19.49751017 -64.125 20.5703125 C-64.8483252 21.12219238 -65.57165039 21.67407227 -66.31689453 22.24267578 C-69.9487963 24.98244705 -73.64361918 27.63315656 -77.33984375 30.28515625 C-86.79328894 37.08258984 -96.16381431 43.98961859 -105.52734375 50.91015625 C-115.56829261 58.3313712 -125.62800779 65.72187431 -135.76025391 73.01806641 C-144.39983979 79.24678028 -152.96219315 85.57969639 -161.52734375 91.91015625 C-171.56829261 99.3313712 -181.62800779 106.72187431 -191.76025391 114.01806641 C-200.39983979 120.24678028 -208.96219315 126.57969639 -217.52734375 132.91015625 C-227.56450418 140.32857119 -237.61893059 147.71846235 -247.74926758 155.00927734 C-253.28736452 159.00029457 -258.78710366 163.04113461 -264.27734375 167.09765625 C-265.85920921 168.26194403 -267.44123705 169.42601124 -269.0234375 170.58984375 C-271.90087408 172.7067055 -274.76681858 174.83770514 -277.625 176.98046875 C-278.86292659 177.89501151 -280.10118591 178.80910413 -281.33984375 179.72265625 C-281.88415039 180.13733154 -282.42845703 180.55200684 -282.98925781 180.97924805 C-286.45610917 183.51200576 -289.23643293 184.64085222 -293.52734375 184.91015625 C-294.51734375 184.58015625 -295.50734375 184.25015625 -296.52734375 183.91015625 C-298.04405734 180.87672908 -297.62219674 177.74605394 -297.57739258 174.42211914 C-297.57111343 173.64945709 -297.56483429 172.87679504 -297.55836487 172.08071899 C-297.54449277 170.39847661 -297.52855219 168.71625032 -297.51081276 167.03404427 C-297.48418215 164.36347289 -297.46630441 161.69298444 -297.45133972 159.02232361 C-297.40860362 151.42708303 -297.36138725 143.83200349 -297.28051758 136.23706055 C-297.2317029 131.59226126 -297.2029128 126.9476943 -297.1867733 122.30267143 C-297.17693373 120.53936595 -297.15981285 118.77608429 -297.13498878 117.0129261 C-296.95367804 103.82949719 -297.65974057 92.87919485 -307.234375 82.85546875 C-316.24785428 75.20859877 -326.15057549 74.10802065 -337.52734375 74.91015625 C-349.06211787 77.41150132 -357.59881504 84.58506328 -364.52734375 93.91015625 C-368.27518322 100.55258067 -369.60194541 106.73762059 -369.81724548 114.33576965 C-369.85526811 115.61983798 -369.89329073 116.90390631 -369.93246555 118.2268858 C-369.9694274 119.63277842 -370.00617377 121.03867671 -370.04272461 122.44458008 C-370.08404602 123.92348931 -370.12556649 125.40239299 -370.16727352 126.88129139 C-370.60981529 142.88873752 -370.92994154 158.89899119 -371.23452497 174.90955329 C-371.28218587 177.40844329 -371.33039086 179.90732225 -371.37876701 182.4061985 C-371.54919482 191.20981073 -371.71779231 200.01345564 -371.88452148 208.81713867 C-372.03740519 216.88724333 -372.19435116 224.95726199 -372.3532148 233.02725095 C-372.4917642 240.07468661 -372.62738644 247.12217503 -372.76091522 254.1697076 C-372.83971725 258.32654381 -372.91950879 262.4833535 -373.00232124 266.64011192 C-373.33554138 283.42719719 -373.59058563 300.21283998 -373.6301707 317.00349581 C-373.63430301 318.64207453 -373.64015763 320.28065001 -373.64791977 321.91921556 C-373.82402843 363.08803976 -359.94971086 399.83532593 -331.52734375 429.91015625 C-330.33238281 431.21919922 -330.33238281 431.21919922 -329.11328125 432.5546875 C-301.47086816 461.7420693 -260.69354286 475.62413578 -221.24609375 477.08984375 C-174.06933838 478.21764007 -132.93474282 459.49345497 -95.95507812 431.72900391 C-91.97443456 428.74672368 -87.96975817 425.79721883 -83.96484375 422.84765625 C-83.17875732 422.26790039 -82.3926709 421.68814453 -81.58276367 421.09082031 C-75.5151139 416.62143258 -69.40984944 412.20593391 -63.29443359 407.80224609 C-55.47136876 402.1622035 -47.71377504 396.43467801 -39.95800781 390.70263672 C-37.46150231 388.86160183 -34.95994961 387.02761771 -32.45703125 385.1953125 C-28.47185419 382.27697236 -24.49742645 379.34468856 -20.53320312 376.39794922 C-18.80259778 375.11431863 -17.06413206 373.84129795 -15.32421875 372.5703125 C-5.5269408 365.1636877 -1.27188199 356.83416704 1.47265625 344.91015625 C2.31841165 337.78164642 0.12058007 331.07924052 -3.15234375 324.78515625 C-10.02022301 316.47140767 -16.69836603 311.68804811 -27.52734375 309.91015625 C-40.13276024 309.34050243 -49.68294523 313.74440919 -59.52734375 321.22265625 C-61.09501734 322.37895335 -62.66272541 323.53520371 -64.23046875 324.69140625 C-66.72796242 326.55637541 -69.21590981 328.43251671 -71.69921875 330.31640625 C-72.55 330.94546875 -73.40078125 331.57453125 -74.27734375 332.22265625 C-74.9734375 332.75503906 -75.66953125 333.28742188 -76.38671875 333.8359375 C-79.25996598 335.27780426 -81.35398885 335.22834023 -84.52734375 334.91015625 C-85.51734375 334.25015625 -86.50734375 333.59015625 -87.52734375 332.91015625 C-88.06365523 329.69228735 -88.32559453 327.96903593 -87.52734375 324.91015625 C-86.22509766 323.39355469 -86.22509766 323.39355469 -84.50390625 322.01953125 C-83.54846924 321.25141113 -83.54846924 321.25141113 -82.57373047 320.46777344 C-79.18328708 317.88712099 -75.75170862 315.37659299 -72.27734375 312.91015625 C-70.68043146 311.76640386 -69.08409632 310.62184529 -67.48828125 309.4765625 C-66.67069336 308.8902002 -65.85310547 308.30383789 -65.01074219 307.69970703 C-59.35784973 303.62620116 -53.75663984 299.48252513 -48.16015625 295.33203125 C-45.13176717 293.08643063 -42.08530285 290.87003039 -39.01953125 288.67578125 C-26.85181774 279.9002204 -18.18162072 271.30997077 -15.52734375 255.91015625 C-14.87257457 247.56184919 -17.17520909 239.3890561 -22.52734375 232.91015625 C-30.42093476 224.7825655 -37.08078637 221.50942246 -48.3828125 220.85546875 C-58.71324322 221.03512841 -66.32791669 224.97229655 -74.52734375 230.91015625 C-75.19620605 231.39419922 -75.86506836 231.87824219 -76.55419922 232.37695312 C-82.24569894 236.50939517 -87.88790725 240.70710775 -93.52734375 244.91015625 C-99.08168622 249.04254292 -104.64753834 253.15796628 -110.24169922 257.23632812 C-111.76665949 258.35309031 -113.28653962 259.47682252 -114.80126953 260.60742188 C-116.94673934 262.20654148 -119.10918017 263.77950688 -121.27734375 265.34765625 C-121.90858154 265.82678467 -122.53981934 266.30591309 -123.19018555 266.79956055 C-126.46365759 269.12534467 -128.29588038 269.91180956 -132.35546875 269.8828125 C-135.52734375 268.91015625 -135.52734375 268.91015625 -137.52734375 265.91015625 C-137.6396758 262.4028999 -137.48339209 259.97438817 -135.06884766 257.28662109 C-133.05666575 255.61252366 -130.98573334 254.09654511 -128.83984375 252.59765625 C-128.06817871 252.03425537 -127.29651367 251.47085449 -126.50146484 250.89038086 C-124.19058049 249.20997588 -121.86174731 247.55767012 -119.52734375 245.91015625 C-118.33503823 245.05463731 -117.14354604 244.19798294 -115.953125 243.33984375 C-113.72404249 241.73790572 -111.48728671 240.14744078 -109.24609375 238.5625 C-102.38957537 233.69519533 -95.64789228 228.66817068 -88.89355469 223.66064453 C-86.60171252 221.96517318 -84.30340967 220.27880917 -82.00390625 218.59375 C-80.59481142 217.55371139 -79.18594576 216.51336221 -77.77734375 215.47265625 C-77.14650879 215.0132666 -76.51567383 214.55387695 -75.86572266 214.08056641 C-69.337597 209.23125153 -63.67852 204.24662312 -60.15234375 196.78515625 C-59.67023438 195.79257812 -59.188125 194.8 -58.69140625 193.77734375 C-55.16024451 185.0797843 -55.65690788 176.20744003 -59.14453125 167.5859375 C-63.47692027 159.20264236 -69.79851696 154.2354236 -78.52734375 150.91015625 C-88.01650407 147.92068501 -98.81341995 149.47156509 -107.52734375 153.91015625 C-112.95260468 157.32143349 -118.03908822 161.21236321 -123.13330078 165.09277344 C-127.06461956 168.07714393 -131.04942331 170.98838594 -135.02734375 173.91015625 C-136.61465744 175.08193087 -138.20189708 176.2538058 -139.7890625 177.42578125 C-145.92075461 181.94347167 -152.09072179 186.40711312 -158.28125 190.84375 C-161.06663547 192.84307577 -163.82095603 194.87597818 -166.5546875 196.9453125 C-167.18528076 197.41549805 -167.81587402 197.88568359 -168.46557617 198.37011719 C-169.63192476 199.24083153 -170.79040067 200.12224503 -171.9387207 201.01660156 C-175.57300186 203.70381488 -178.03514524 204.45076467 -182.52734375 203.91015625 C-184.40234375 202.84765625 -184.40234375 202.84765625 -185.52734375 200.91015625 C-186.15234375 197.59765625 -186.15234375 197.59765625 -185.52734375 193.91015625 C-184.22509766 192.44848633 -184.22509766 192.44848633 -182.50390625 191.0546875 C-181.86694824 190.53753174 -181.22999023 190.02037598 -180.57373047 189.48754883 C-177.19535213 186.88343257 -173.75538983 184.37915625 -170.27734375 181.91015625 C-168.676512 180.76381827 -167.07627067 179.61665541 -165.4765625 178.46875 C-164.65849121 177.88206543 -163.84041992 177.29538086 -162.99755859 176.69091797 C-159.00678843 173.81399787 -155.04731223 170.89513867 -151.08984375 167.97265625 C-150.30391846 167.39265869 -149.51799316 166.81266113 -148.70825195 166.21508789 C-146.31408006 164.44750135 -143.92059157 162.67899371 -141.52734375 160.91015625 C-131.48639489 153.4889413 -121.42667971 146.09843819 -111.29443359 138.80224609 C-102.65484771 132.57353222 -94.09249435 126.24061611 -85.52734375 119.91015625 C-75.48639489 112.4889413 -65.42667971 105.09843819 -55.29443359 97.80224609 C-49.07493331 93.31829418 -42.89047667 88.78814373 -36.72949219 84.22412109 C-32.6246435 81.18396225 -28.50484363 78.1690649 -24.3515625 75.1953125 C-23.50198975 74.58228271 -22.65241699 73.96925293 -21.77709961 73.33764648 C-20.16757994 72.17707575 -18.55287432 71.02364629 -16.93188477 69.87915039 C-10.00419127 64.86045499 -4.0399028 59.22430436 -0.65234375 51.22265625 C-0.06839844 49.88654297 -0.06839844 49.88654297 0.52734375 48.5234375 C3.74957545 39.61569781 2.84341012 31.58618362 -0.52734375 22.91015625 C-4.00171815 16.22866702 -10.33604356 9.95548556 -17.33984375 6.97265625 C-33.42950861 2.0882937 -47.20327882 7.44503022 -59.90234375 17.34765625 Z " fill="#FCFCFC" transform="translate(441.52734375,175.08984375)"/>
<path d="M0 0 C4.60837888 2.00364299 7.19902819 6.87036297 9.9765625 10.859375 C10.36263672 11.41012695 10.74871094 11.96087891 11.14648438 12.52832031 C13.38590961 15.72980263 15.59469074 18.9510925 17.7890625 22.18359375 C20.79375041 26.60513418 23.84305921 30.994695 26.90014648 35.38012695 C28.28201848 37.36284111 29.66174766 39.34705048 31.03930664 41.33276367 C34.13273703 45.79123749 37.23776927 50.23790034 40.41015625 54.640625 C40.92255859 55.36056641 41.43496094 56.08050781 41.96289062 56.82226562 C42.89496754 58.13068585 43.83690821 59.43216599 44.79101562 60.72460938 C47.61989996 64.72590417 48.84079843 67.94825735 48.9765625 72.859375 C46.9765625 75.859375 46.9765625 75.859375 43.9765625 77.859375 C39.8641405 77.78895682 37.72941783 77.57718362 34.7109375 74.69921875 C34.05609375 73.74144531 33.40125 72.78367187 32.7265625 71.796875 C32.16714966 70.99830078 32.16714966 70.99830078 31.59643555 70.18359375 C30.36943461 68.42200525 29.17339857 66.64156321 27.9765625 64.859375 C27.13609955 63.64055592 26.29361454 62.42312897 25.44921875 61.20703125 C23.61970337 58.56564503 21.80232415 55.91641993 19.9921875 53.26171875 C16.70981905 48.45695032 13.37712425 43.68805301 10.0390625 38.921875 C9.45463379 38.08446777 8.87020508 37.24706055 8.26806641 36.38427734 C5.3667626 32.2346357 2.44028664 28.10788523 -0.546875 24.01953125 C-1.10125244 23.25439209 -1.65562988 22.48925293 -2.22680664 21.70092773 C-3.2689534 20.26538679 -4.31971788 18.83604659 -5.38061523 17.41430664 C-8.129632 13.61225251 -9.85512648 10.70532991 -10.0234375 5.859375 C-7.71882487 0.92091937 -5.64846472 -0.97627785 0 0 Z " fill="#FDFDFD" transform="translate(324.0234375,76.140625)"/>
<path d="M0 0 C7.96466175 1.64786105 12.64982899 11.90552912 17 18.25 C18.41524995 20.29955833 19.83061802 22.34903509 21.24609375 24.3984375 C21.96780762 25.44612305 22.68952148 26.49380859 23.43310547 27.57324219 C26.27895693 31.69779323 29.141347 35.81068466 32.00610352 39.92211914 C33.36658368 41.87569953 34.72517593 43.83059615 36.08178711 45.78686523 C38.89041124 49.83641935 41.70408403 53.8788446 44.59375 57.87109375 C45.23292358 58.76320557 45.23292358 58.76320557 45.88500977 59.67333984 C46.95592914 61.16414488 48.03791425 62.64698516 49.12109375 64.12890625 C51.16402079 67.68943624 52.02468151 70.9514332 51.125 75 C48.68681445 77.84454981 46.24683333 78.19751695 42.625 78.75 C37.10503349 76.58078239 34.48708733 71.72741405 31.3125 67 C30.06651447 65.18221748 28.8204163 63.36451217 27.57421875 61.546875 C26.92759277 60.59619141 26.2809668 59.64550781 25.61474609 58.66601562 C22.98021857 54.80505897 20.30985347 50.96969026 17.63623047 47.13574219 C16.29503835 45.2113806 14.95682067 43.28494255 13.62158203 41.35644531 C10.30444126 36.5681684 6.95679474 31.80804395 3.53515625 27.09375 C2.56352539 25.74313477 2.56352539 25.74313477 1.57226562 24.36523438 C0.35136194 22.67115144 -0.87981211 20.98440405 -2.12304688 19.30664062 C-5.33882567 14.82277432 -7.32493376 11.46470329 -7.375 5.75 C-5.39733245 1.87706772 -4.25837589 0.94630575 0 0 Z " fill="#FCFCFC" transform="translate(453.375,264.25)"/>
<path d="M0 0 C2.375 1 2.375 1 4 3 C4.88282012 7.89563885 4.88282012 7.89563885 4 11 C2.65429688 12.5456543 2.65429688 12.5456543 0.90625 13.94921875 C0.26969482 14.46186279 -0.36686035 14.97450684 -1.02270508 15.50268555 C-4.01492262 17.7685542 -7.06989239 19.91078658 -10.1875 22 C-11.60344161 22.96139028 -13.01877776 23.92367274 -14.43359375 24.88671875 C-15.17593262 25.39122559 -15.91827148 25.89573242 -16.68310547 26.41552734 C-20.72820664 29.1818821 -24.73833012 31.99798077 -28.75 34.8125 C-29.99064209 35.68213379 -29.99064209 35.68213379 -31.25634766 36.56933594 C-32.95800819 37.76229988 -34.6595036 38.95549939 -36.36083984 40.14892578 C-40.92663532 43.35131813 -45.49446808 46.55079903 -50.0625 49.75 C-51.33915527 50.64489136 -51.33915527 50.64489136 -52.64160156 51.55786133 C-53.43147461 52.11111084 -54.22134766 52.66436035 -55.03515625 53.234375 C-55.7300415 53.72131836 -56.42492676 54.20826172 -57.14086914 54.70996094 C-61.70682192 57.87824649 -64.48889102 58.91851816 -70 58 C-72.65656032 55.84154474 -72.92904589 54.41685537 -73.5 51.0625 C-72.65739899 45.90156879 -68.55649129 43.32326581 -64.49609375 40.37890625 C-63.14677198 39.43501923 -61.79367745 38.49650999 -60.4375 37.5625 C-59.6964502 37.0459082 -58.95540039 36.52931641 -58.19189453 35.99707031 C-56.60732744 34.89272508 -55.02135049 33.79040044 -53.43408203 32.68994141 C-51.03308758 31.02297214 -48.638507 29.34722576 -46.24609375 27.66796875 C-41.16926763 24.10451106 -36.08533233 20.55130489 -31 17 C-29.97777344 16.28569824 -28.95554687 15.57139648 -27.90234375 14.83544922 C-24.72765658 12.61789358 -21.55154075 10.40239945 -18.375 8.1875 C-17.37259277 7.4872168 -16.37018555 6.78693359 -15.33740234 6.06542969 C-14.40879395 5.41864258 -13.48018555 4.77185547 -12.5234375 4.10546875 C-11.69763184 3.52949951 -10.87182617 2.95353027 -10.02099609 2.36010742 C-6.48464126 -0.01981922 -4.28457628 -0.3427661 0 0 Z " fill="#FCFCFC" transform="translate(550,110)"/>
<path d="M0 0 C1.01393578 0.16921211 1.01393578 0.16921211 2.0483551 0.34184265 C4.30581414 0.72118107 6.56112247 1.1118547 8.81640625 1.50390625 C10.39905937 1.77539795 11.98174228 2.04671608 13.56445312 2.31787109 C16.98649283 2.90643703 20.40732747 3.50156213 23.82763672 4.10009766 C27.65820853 4.76947894 31.49061529 5.42677024 35.32470703 6.07568359 C40.36082728 6.92817182 45.39380768 7.7973703 50.42507935 8.67800903 C52.39037927 9.01959287 54.35659669 9.35594032 56.32369995 9.6869812 C59.09500386 10.15503447 61.86201124 10.64335933 64.62890625 11.13671875 C65.87034142 11.33970833 65.87034142 11.33970833 67.13685608 11.54679871 C71.67204973 12.3801672 74.55614146 13.12552123 77.37890625 17.06640625 C77.86782282 20.41897701 77.73701229 22.3302994 76.25390625 25.37890625 C73.67552334 27.69945087 71.8187398 27.72624631 68.37890625 28.06640625 C64.93312073 27.71331787 64.93312073 27.71331787 61.10766602 27.03417969 C60.40602325 26.91234818 59.70438049 26.79051666 58.98147583 26.66499329 C56.67587296 26.26186848 54.37316884 25.84428856 52.0703125 25.42578125 C50.4590912 25.13944526 48.84775596 24.85374971 47.23631287 24.56866455 C43.86363169 23.96967523 40.49231674 23.36363356 37.12182617 22.75244141 C32.81575379 21.97207754 28.50694898 21.20824611 24.19700718 20.44958115 C20.86975716 19.86218652 17.5440291 19.26652016 14.21870232 18.66834259 C12.63121388 18.38368603 11.04329141 18.10143855 9.45492744 17.82170868 C7.22821054 17.42816245 5.00375759 17.02362041 2.77954102 16.61621094 C1.51634537 16.38891296 0.25314972 16.16161499 -1.04832458 15.9274292 C-4.90877959 14.99707512 -8.06422812 13.81977666 -11.62109375 12.06640625 C-13.14601373 9.01656629 -12.85671923 6.42406935 -12.62109375 3.06640625 C-9.29926242 -1.67906708 -5.18736984 -0.88001563 0 0 Z " fill="#FCFCFC" transform="translate(490.62109375,215.93359375)"/>
<path d="M0 0 C3.5 0.5625 3.5 0.5625 6 2.4375 C9.88176383 10.52450799 5.39124658 22.59387634 3.8828125 31.203125 C3.62234041 32.69902777 3.36191441 34.19493856 3.10153198 35.69085693 C2.55789193 38.80773693 2.01105107 41.92403707 1.46240234 45.04003906 C0.76199515 49.02166619 0.07377025 53.00529745 -0.61160088 56.98953629 C-1.14399632 60.07224862 -1.68489242 63.1534256 -2.22812271 66.2342453 C-2.4855591 67.70243362 -2.73990833 69.17116692 -2.99102402 70.64044952 C-3.34298732 72.69460384 -3.70690713 74.74630611 -4.07373047 76.79785156 C-4.27723114 77.96237854 -4.48073181 79.12690552 -4.69039917 80.32672119 C-5.54743843 83.75209992 -6.72631734 86.5140369 -8.5 89.5625 C-11.30915474 90.96707737 -13.38810534 90.81145157 -16.5 90.5625 C-18.66912842 89.30545044 -18.66912842 89.30545044 -20.5 87.5625 C-22.59746694 79.40130541 -19.25405981 68.95448035 -17.796875 60.7578125 C-17.51470782 59.14505946 -17.23283216 57.53225538 -16.95123291 55.91940308 C-16.36202398 52.55812849 -15.76594101 49.19815747 -15.16552734 45.83886719 C-14.39785267 41.53774384 -13.65284777 37.2330275 -12.91349411 32.92695808 C-12.33934616 29.60328369 -11.75068503 26.28230195 -11.15787506 22.96191025 C-10.87690371 21.37520342 -10.60104783 19.78758173 -10.33046722 18.19906998 C-9.95124734 15.98273498 -9.55195858 13.77092315 -9.14746094 11.55908203 C-8.92539978 10.30128937 -8.70333862 9.0434967 -8.47454834 7.74758911 C-6.95758306 2.78973388 -5.13048782 0.82454269 0 0 Z " fill="#FDFDFD" transform="translate(436.5,50.4375)"/>
</svg>
